<?xml version="1.0" encoding="UTF-8"?><svg xmlns="http://www.w3.org/2000/svg" xmlns:xlink="http://www.w3.org/1999/xlink" color-interpolation="auto" color-rendering="auto" fill="rgb(0,0,0)" fill-opacity="0" font-family="'Dialog'" font-size="12px" font-style="normal" font-weight="normal" height="400" image-rendering="auto" shape-rendering="auto" stroke="rgb(0,0,0)" stroke-dasharray="none" stroke-dashoffset="0" stroke-linecap="square" stroke-linejoin="miter" stroke-miterlimit="10" stroke-opacity="0" stroke-width="1" text-rendering="auto" viewbox="0 0 699 400" width="699"><!--Generated by the Batik Graphics2D SVG Generator--><defs id="genericDefs"/><g><defs id="defs1"><clipPath clipPathUnits="userSpaceOnUse" id="776d9f95-eedf-4fca-8c91-c357a9e14ec3"><path d="M-7 -7 L478 -7 L478 405 L-7 405 L-7 -7 Z"/></clipPath><clipPath clipPathUnits="userSpaceOnUse" id="85b90446-969a-4794-a0e8-f11cda7b2d9f"><path d="M-7 -7 L478 -7 L478 405 L-7 405 L-7 -7 Z"/></clipPath><clipPath clipPathUnits="userSpaceOnUse" id="643b2a89-3807-4b9d-ab5f-6e6b49737e7e"><path d="M-7 -7 L478 -7 L478 405 L-7 405 L-7 -7 Z"/></clipPath><clipPath clipPathUnits="userSpaceOnUse" id="6eae85ac-8523-403f-bb1c-63e60ecad685"><path d="M0 0 L0 374 L467 374 L467 0 Z"/></clipPath><clipPath clipPathUnits="userSpaceOnUse" id="6749afb5-f68e-4b04-b281-486cbc20d9ae"><path d="M-7 -7 L133 -7 L133 115 L-7 115 L-7 -7 Z"/></clipPath><clipPath clipPathUnits="userSpaceOnUse" id="ab22b42d-e55c-47ec-b16d-f273cfb6dcd2"><path d="M-7 -7 L133 -7 L133 115 L-7 115 L-7 -7 Z"/></clipPath><clipPath clipPathUnits="userSpaceOnUse" id="036a4d6a-7a33-4102-8004-8f68e1a53fc0"><path d="M-7 -7 L133 -7 L133 115 L-7 115 L-7 -7 Z"/></clipPath><clipPath clipPathUnits="userSpaceOnUse" id="19e4f550-b98c-45d3-9c7b-d7a37f3626ab"><path d="M0 0 L0 84 L122 84 L122 0 Z"/></clipPath><clipPath clipPathUnits="userSpaceOnUse" id="9fcc24ec-b933-49fa-a280-8777eacb1466"><path d="M-7 -7 L177 -7 L177 79 L-7 79 L-7 -7 Z"/></clipPath><clipPath clipPathUnits="userSpaceOnUse" id="7f88adad-4d50-4df8-bb39-7203b7745d09"><path d="M-7 -7 L177 -7 L177 79 L-7 79 L-7 -7 Z"/></clipPath><clipPath clipPathUnits="userSpaceOnUse" id="8b3aff5d-c9af-4a87-91f2-c0e7288f2e56"><path d="M-7 -7 L177 -7 L177 79 L-7 79 L-7 -7 Z"/></clipPath><clipPath clipPathUnits="userSpaceOnUse" id="013ead76-58b0-479f-84ea-2e1bc70c5f50"><path d="M0 0 L0 48 L166 48 L166 0 Z"/></clipPath><clipPath clipPathUnits="userSpaceOnUse" id="71c99072-6428-4115-999f-99a0ea9b2514"><path d="M-7 -7 L177 -7 L177 84 L-7 84 L-7 -7 Z"/></clipPath><clipPath clipPathUnits="userSpaceOnUse" id="130ec118-9d45-4e13-a34f-1569fedf6efb"><path d="M-7 -7 L177 -7 L177 84 L-7 84 L-7 -7 Z"/></clipPath><clipPath clipPathUnits="userSpaceOnUse" id="61b61ca8-9734-485e-9bb7-b0ae13c53c93"><path d="M-7 -7 L177 -7 L177 84 L-7 84 L-7 -7 Z"/></clipPath><clipPath clipPathUnits="userSpaceOnUse" id="e88be144-f14a-441d-bba8-2b37d2754aaf"><path d="M0 0 L0 53 L166 53 L166 0 Z"/></clipPath><clipPath clipPathUnits="userSpaceOnUse" id="96d72138-40e2-45df-93c6-d9cec913abe2"><path d="M-7 -7 L164 -7 L164 73 L-7 73 L-7 -7 Z"/></clipPath><clipPath clipPathUnits="userSpaceOnUse" id="054b1e8a-f6c8-495c-80b5-690d4b29723e"><path d="M-7 -7 L164 -7 L164 73 L-7 73 L-7 -7 Z"/></clipPath><clipPath clipPathUnits="userSpaceOnUse" id="7d9c72d6-533c-48b6-970b-65a6cad12db7"><path d="M-7 -7 L164 -7 L164 73 L-7 73 L-7 -7 Z"/></clipPath><clipPath clipPathUnits="userSpaceOnUse" id="2c060340-f7fa-4bae-b2d1-ef76d099148a"><path d="M0 0 L0 42 L153 42 L153 0 Z"/></clipPath><clipPath clipPathUnits="userSpaceOnUse" id="63db182e-8581-46b9-81a9-bd505fb4699d"><path d="M-7 -7 L177 -7 L177 75 L-7 75 L-7 -7 Z"/></clipPath><clipPath clipPathUnits="userSpaceOnUse" id="df377b74-0b84-4c26-9db4-154db3704999"><path d="M-7 -7 L177 -7 L177 75 L-7 75 L-7 -7 Z"/></clipPath><clipPath clipPathUnits="userSpaceOnUse" id="a2e68f71-97a3-4e6d-ba7d-6c263faf8da0"><path d="M-7 -7 L177 -7 L177 75 L-7 75 L-7 -7 Z"/></clipPath><clipPath clipPathUnits="userSpaceOnUse" id="05877639-fc1e-4a22-a69c-7acdd9b06181"><path d="M0 0 L0 44 L166 44 L166 0 Z"/></clipPath><clipPath clipPathUnits="userSpaceOnUse" id="57f532d6-d754-482f-a39a-df9f5094c578"><path d="M-7 -7 L177 -7 L177 83 L-7 83 L-7 -7 Z"/></clipPath><clipPath clipPathUnits="userSpaceOnUse" id="7c9ed677-d9ff-4ea5-a22b-1f3bab993def"><path d="M-7 -7 L177 -7 L177 83 L-7 83 L-7 -7 Z"/></clipPath><clipPath clipPathUnits="userSpaceOnUse" id="99e1a06a-401a-4c3e-869f-f1bf6ff874c4"><path d="M-7 -7 L177 -7 L177 83 L-7 83 L-7 -7 Z"/></clipPath><clipPath clipPathUnits="userSpaceOnUse" id="29118d5c-416f-48bf-bfb4-a30e091b328e"><path d="M0 0 L0 52 L166 52 L166 0 Z"/></clipPath><clipPath clipPathUnits="userSpaceOnUse" id="c0e54ba7-da9c-42fa-9334-f40ed8005ac3"><path d="M0 0 L212 0 L212 129 L0 129 L0 0 Z"/></clipPath><clipPath clipPathUnits="userSpaceOnUse" id="a9fc8d3f-d551-44e8-b7da-205582838695"><path d="M0 0 L0 129 L212 129 L212 0 Z"/></clipPath><clipPath clipPathUnits="userSpaceOnUse" id="1d4c9400-60a9-46f8-9e3a-fa45620bf22c"><path d="M0 0 L283 0 L283 177 L0 177 L0 0 Z"/></clipPath><clipPath clipPathUnits="userSpaceOnUse" id="bfcbd1e9-9eda-4dc4-a4a6-7aaba3661e64"><path d="M0 0 L0 177 L283 177 L283 0 Z"/></clipPath><clipPath clipPathUnits="userSpaceOnUse" id="aa7594e7-2ae7-4be1-b546-214085ebb61a"><path d="M0 0 L212 0 L212 125 L0 125 L0 0 Z"/></clipPath><clipPath clipPathUnits="userSpaceOnUse" id="6d607ec1-6b3a-40af-a10e-7179d106b2cd"><path d="M0 0 L0 125 L212 125 L212 0 Z"/></clipPath><clipPath clipPathUnits="userSpaceOnUse" id="c5237178-eb69-4f0f-80a4-c5b59af5b0d6"><path d="M0 0 L206 0 L206 104 L0 104 L0 0 Z"/></clipPath><clipPath clipPathUnits="userSpaceOnUse" id="bffe4ec3-9047-4734-80b9-7ad238ac2f61"><path d="M0 0 L0 104 L206 104 L206 0 Z"/></clipPath><clipPath clipPathUnits="userSpaceOnUse" id="1e8b4955-faed-476f-86fa-f360ec055c23"><path d="M0 0 L283 0 L283 190 L0 190 L0 0 Z"/></clipPath><clipPath clipPathUnits="userSpaceOnUse" id="610ebdfb-af60-4c2f-a499-b88c00ae1203"><path d="M0 0 L0 190 L283 190 L283 0 Z"/></clipPath></defs><g fill="white" fill-opacity="1" stroke="white" stroke-opacity="1" text-rendering="geometricPrecision"><rect height="400" stroke="none" width="699" x="0" y="0"/></g><g data="{&quot;name&quot;:&quot;Domaine&quot;,&quot;modelType&quot;:&quot;Package&quot;}" hyper="" model-id="shape-mLEztwWD.AAAAQ8s" style="pointer-events: auto; cursor: pointer;"><g fill="rgb(122,207,245)" fill-opacity="1" font-family="sans-serif" font-size="11px" image-rendering="optimizeQuality" stroke="rgb(122,207,245)" stroke-opacity="1" text-rendering="geometricPrecision" transform="translate(228,2)"><rect clip-path="url(#85b90446-969a-4794-a0e8-f11cda7b2d9f)" height="20" stroke="none" width="93" x="0" y="0"/><rect clip-path="url(#85b90446-969a-4794-a0e8-f11cda7b2d9f)" height="373" stroke="none" width="466" x="0" y="20"/></g><g fill="black" fill-opacity="1" font-family="sans-serif" font-size="11px" image-rendering="optimizeQuality" stroke="black" stroke-linecap="butt" stroke-linejoin="round" stroke-miterlimit="0" stroke-opacity="1" text-rendering="geometricPrecision" transform="translate(228,2)"><path clip-path="url(#85b90446-969a-4794-a0e8-f11cda7b2d9f)" d="M0 20 L466 20 L466 393 L0 393 L0 0 L93 0 L93 20" fill="none"/></g></g><g fill="black" fill-opacity="1" font-family="sans-serif" font-size="11px" image-rendering="optimizeQuality" stroke="black" stroke-opacity="1" text-rendering="geometricPrecision" transform="translate(228,22)"><text clip-path="url(#6eae85ac-8523-403f-bb1c-63e60ecad685)" stroke="none" x="209" xml:space="preserve" y="11">Domaine</text></g><g data="{&quot;name&quot;:&quot;Application&quot;,&quot;modelType&quot;:&quot;Package&quot;}" hyper="" model-id="shape-_BKDtwWD.AAAAQ3u" style="pointer-events: auto; cursor: pointer;"><g fill="rgb(122,207,245)" fill-opacity="1" font-family="sans-serif" font-size="11px" image-rendering="optimizeQuality" stroke="rgb(122,207,245)" stroke-opacity="1" text-rendering="geometricPrecision" transform="translate(2,147)"><rect clip-path="url(#ab22b42d-e55c-47ec-b16d-f273cfb6dcd2)" height="20" stroke="none" width="24" x="0" y="0"/><rect clip-path="url(#ab22b42d-e55c-47ec-b16d-f273cfb6dcd2)" height="83" stroke="none" width="121" x="0" y="20"/></g><g fill="black" fill-opacity="1" font-family="sans-serif" font-size="11px" image-rendering="optimizeQuality" stroke="black" stroke-linecap="butt" stroke-linejoin="round" stroke-miterlimit="0" stroke-opacity="1" text-rendering="geometricPrecision" transform="translate(2,147)"><path clip-path="url(#ab22b42d-e55c-47ec-b16d-f273cfb6dcd2)" d="M0 20 L121 20 L121 103 L0 103 L0 0 L24 0 L24 20" fill="none"/></g></g><g fill="black" fill-opacity="1" font-family="sans-serif" font-size="11px" image-rendering="optimizeQuality" stroke="black" stroke-opacity="1" text-rendering="geometricPrecision" transform="translate(2,167)"><text clip-path="url(#19e4f550-b98c-45d3-9c7b-d7a37f3626ab)" stroke="none" x="30" xml:space="preserve" y="11">Application</text></g><g data="{&quot;name&quot;:&quot;Ferrovial&quot;,&quot;modelType&quot;:&quot;Package&quot;}" hyper="" model-id="shape-CtajtwWD.AAAAQ6l" style="pointer-events: auto; cursor: pointer;"><g fill="rgb(122,207,245)" fill-opacity="1" font-family="sans-serif" font-size="11px" image-rendering="optimizeQuality" stroke="rgb(122,207,245)" stroke-opacity="1" text-rendering="geometricPrecision" transform="translate(256,202)"><rect clip-path="url(#7f88adad-4d50-4df8-bb39-7203b7745d09)" height="20" stroke="none" width="33" x="0" y="0"/><rect clip-path="url(#7f88adad-4d50-4df8-bb39-7203b7745d09)" height="47" stroke="none" width="165" x="0" y="20"/></g><g fill="black" fill-opacity="1" font-family="sans-serif" font-size="11px" image-rendering="optimizeQuality" stroke="black" stroke-linecap="butt" stroke-linejoin="round" stroke-miterlimit="0" stroke-opacity="1" text-rendering="geometricPrecision" transform="translate(256,202)"><path clip-path="url(#7f88adad-4d50-4df8-bb39-7203b7745d09)" d="M0 20 L165 20 L165 67 L0 67 L0 0 L33 0 L33 20" fill="none"/></g></g><g fill="black" fill-opacity="1" font-family="sans-serif" font-size="11px" image-rendering="optimizeQuality" stroke="black" stroke-opacity="1" text-rendering="geometricPrecision" transform="translate(256,222)"><text clip-path="url(#013ead76-58b0-479f-84ea-2e1bc70c5f50)" stroke="none" x="60" xml:space="preserve" y="11">Ferrovial</text></g><g data="{&quot;name&quot;:&quot;Aérien&quot;,&quot;modelType&quot;:&quot;Package&quot;}" hyper="" model-id="shape-iV7jtwWD.AAAAQ62" style="pointer-events: auto; cursor: pointer;"><g fill="rgb(122,207,245)" fill-opacity="1" font-family="sans-serif" font-size="11px" image-rendering="optimizeQuality" stroke="rgb(122,207,245)" stroke-opacity="1" text-rendering="geometricPrecision" transform="translate(256,122)"><rect clip-path="url(#130ec118-9d45-4e13-a34f-1569fedf6efb)" height="20" stroke="none" width="33" x="0" y="0"/><rect clip-path="url(#130ec118-9d45-4e13-a34f-1569fedf6efb)" height="52" stroke="none" width="165" x="0" y="20"/></g><g fill="black" fill-opacity="1" font-family="sans-serif" font-size="11px" image-rendering="optimizeQuality" stroke="black" stroke-linecap="butt" stroke-linejoin="round" stroke-miterlimit="0" stroke-opacity="1" text-rendering="geometricPrecision" transform="translate(256,122)"><path clip-path="url(#130ec118-9d45-4e13-a34f-1569fedf6efb)" d="M0 20 L165 20 L165 72 L0 72 L0 0 L33 0 L33 20" fill="none"/></g></g><g fill="black" fill-opacity="1" font-family="sans-serif" font-size="11px" image-rendering="optimizeQuality" stroke="black" stroke-opacity="1" text-rendering="geometricPrecision" transform="translate(256,142)"><text clip-path="url(#e88be144-f14a-441d-bba8-2b37d2754aaf)" stroke="none" x="65" xml:space="preserve" y="11">Aérien</text></g><g data="{&quot;name&quot;:&quot;Commun&quot;,&quot;modelType&quot;:&quot;Package&quot;}" hyper="" model-id="shape-Q.0TtwWD.AAAAQ8K" style="pointer-events: auto; cursor: pointer;"><g fill="rgb(122,207,245)" fill-opacity="1" font-family="sans-serif" font-size="11px" image-rendering="optimizeQuality" stroke="rgb(122,207,245)" stroke-opacity="1" text-rendering="geometricPrecision" transform="translate(532,164)"><rect clip-path="url(#054b1e8a-f6c8-495c-80b5-690d4b29723e)" height="20" stroke="none" width="30" x="0" y="0"/><rect clip-path="url(#054b1e8a-f6c8-495c-80b5-690d4b29723e)" height="41" stroke="none" width="152" x="0" y="20"/></g><g fill="black" fill-opacity="1" font-family="sans-serif" font-size="11px" image-rendering="optimizeQuality" stroke="black" stroke-linecap="butt" stroke-linejoin="round" stroke-miterlimit="0" stroke-opacity="1" text-rendering="geometricPrecision" transform="translate(532,164)"><path clip-path="url(#054b1e8a-f6c8-495c-80b5-690d4b29723e)" d="M0 20 L152 20 L152 61 L0 61 L0 0 L30 0 L30 20" fill="none"/></g></g><g fill="black" fill-opacity="1" font-family="sans-serif" font-size="11px" font-style="italic" image-rendering="optimizeQuality" stroke="black" stroke-opacity="1" text-rendering="geometricPrecision" transform="translate(532,184)"><text clip-path="url(#2c060340-f7fa-4bae-b2d1-ef76d099148a)" stroke="none" x="52" xml:space="preserve" y="11">Commun</text></g><g data="{&quot;name&quot;:&quot;Naval&quot;,&quot;modelType&quot;:&quot;Package&quot;}" hyper="" model-id="shape-1ZqztwWD.AAAAQ.W" style="pointer-events: auto; cursor: pointer;"><g fill="rgb(122,207,245)" fill-opacity="1" font-family="sans-serif" font-size="11px" image-rendering="optimizeQuality" stroke="rgb(122,207,245)" stroke-opacity="1" text-rendering="geometricPrecision" transform="translate(256,58)"><rect clip-path="url(#df377b74-0b84-4c26-9db4-154db3704999)" height="20" stroke="none" width="33" x="0" y="0"/><rect clip-path="url(#df377b74-0b84-4c26-9db4-154db3704999)" height="43" stroke="none" width="165" x="0" y="20"/></g><g fill="black" fill-opacity="1" font-family="sans-serif" font-size="11px" image-rendering="optimizeQuality" stroke="black" stroke-linecap="butt" stroke-linejoin="round" stroke-miterlimit="0" stroke-opacity="1" text-rendering="geometricPrecision" transform="translate(256,58)"><path clip-path="url(#df377b74-0b84-4c26-9db4-154db3704999)" d="M0 20 L165 20 L165 63 L0 63 L0 0 L33 0 L33 20" fill="none"/></g></g><g fill="black" fill-opacity="1" font-family="sans-serif" font-size="11px" image-rendering="optimizeQuality" stroke="black" stroke-opacity="1" text-rendering="geometricPrecision" transform="translate(256,78)"><text clip-path="url(#05877639-fc1e-4a22-a69c-7acdd9b06181)" stroke="none" x="67" xml:space="preserve" y="11">Naval</text></g><g data="{&quot;name&quot;:&quot;Réservation&quot;,&quot;modelType&quot;:&quot;Package&quot;}" hyper="" model-id="shape-MInztwWD.AAAARAd" style="pointer-events: auto; cursor: pointer;"><g fill="rgb(122,207,245)" fill-opacity="1" font-family="sans-serif" font-size="11px" image-rendering="optimizeQuality" stroke="rgb(122,207,245)" stroke-opacity="1" text-rendering="geometricPrecision" transform="translate(256,277)"><rect clip-path="url(#7c9ed677-d9ff-4ea5-a22b-1f3bab993def)" height="20" stroke="none" width="33" x="0" y="0"/><rect clip-path="url(#7c9ed677-d9ff-4ea5-a22b-1f3bab993def)" height="51" stroke="none" width="165" x="0" y="20"/></g><g fill="black" fill-opacity="1" font-family="sans-serif" font-size="11px" image-rendering="optimizeQuality" stroke="black" stroke-linecap="butt" stroke-linejoin="round" stroke-miterlimit="0" stroke-opacity="1" text-rendering="geometricPrecision" transform="translate(256,277)"><path clip-path="url(#7c9ed677-d9ff-4ea5-a22b-1f3bab993def)" d="M0 20 L165 20 L165 71 L0 71 L0 0 L33 0 L33 20" fill="none"/></g></g><g fill="black" fill-opacity="1" font-family="sans-serif" font-size="11px" image-rendering="optimizeQuality" stroke="black" stroke-opacity="1" text-rendering="geometricPrecision" transform="translate(256,297)"><text clip-path="url(#29118d5c-416f-48bf-bfb4-a30e091b328e)" stroke="none" x="52" xml:space="preserve" y="11">Réservation</text></g><g data="{&quot;modelType&quot;:&quot;Dependency&quot;}" hyper="" model-id="connector-sWjztwWD.AAAAQ_x" style="pointer-events: auto; cursor: pointer;"><g fill="black" fill-opacity="1" font-family="sans-serif" font-size="11px" image-rendering="optimizeQuality" stroke="black" stroke-dasharray="5" stroke-dashoffset="1" stroke-linecap="butt" stroke-linejoin="round" stroke-opacity="1" text-rendering="geometricPrecision" transform="translate(373,176)"><line clip-path="url(#a9fc8d3f-d551-44e8-b7da-205582838695)" fill="none" x1="50" x2="103" y1="75" y2="75"/><line clip-path="url(#a9fc8d3f-d551-44e8-b7da-205582838695)" fill="none" x1="103" x2="158" y1="75" y2="50"/><line clip-path="url(#a9fc8d3f-d551-44e8-b7da-205582838695)" fill="none" stroke-dasharray="none" stroke-dashoffset="0" x1="158" x2="145" y1="50" y2="48"/><line clip-path="url(#a9fc8d3f-d551-44e8-b7da-205582838695)" fill="none" stroke-dasharray="none" stroke-dashoffset="0" x1="158" x2="150" y1="50" y2="59"/></g></g><g data="{&quot;modelType&quot;:&quot;Dependency&quot;}" hyper="" model-id="connector-EqrztwWD.AAAARAD" style="pointer-events: auto; cursor: pointer;"><g fill="black" fill-opacity="1" font-family="sans-serif" font-size="11px" image-rendering="optimizeQuality" stroke="black" stroke-dasharray="5" stroke-dashoffset="1" stroke-linecap="butt" stroke-linejoin="round" stroke-opacity="1" text-rendering="geometricPrecision" transform="translate(373,40)"><line clip-path="url(#bfcbd1e9-9eda-4dc4-a4a6-7aaba3661e64)" fill="none" x1="50" x2="229" y1="50" y2="50"/><line clip-path="url(#bfcbd1e9-9eda-4dc4-a4a6-7aaba3661e64)" fill="none" x1="229" x2="229" y1="50" y2="123"/><line clip-path="url(#bfcbd1e9-9eda-4dc4-a4a6-7aaba3661e64)" fill="none" stroke-dasharray="none" stroke-dashoffset="0" x1="229" x2="235" y1="123" y2="111"/><line clip-path="url(#bfcbd1e9-9eda-4dc4-a4a6-7aaba3661e64)" fill="none" stroke-dasharray="none" stroke-dashoffset="0" x1="229" x2="223" y1="123" y2="111"/></g></g><g data="{&quot;modelType&quot;:&quot;Dependency&quot;}" hyper="" model-id="connector-ugbztwWD.AAAARAH" style="pointer-events: auto; cursor: pointer;"><g fill="black" fill-opacity="1" font-family="sans-serif" font-size="11px" image-rendering="optimizeQuality" stroke="black" stroke-dasharray="5" stroke-dashoffset="1" stroke-linecap="butt" stroke-linejoin="round" stroke-opacity="1" text-rendering="geometricPrecision" transform="translate(373,93)"><line clip-path="url(#6d607ec1-6b3a-40af-a10e-7179d106b2cd)" fill="none" x1="50" x2="103" y1="50" y2="50"/><line clip-path="url(#6d607ec1-6b3a-40af-a10e-7179d106b2cd)" fill="none" x1="103" x2="158" y1="50" y2="71"/><line clip-path="url(#6d607ec1-6b3a-40af-a10e-7179d106b2cd)" fill="none" stroke-dasharray="none" stroke-dashoffset="0" x1="158" x2="148" y1="71" y2="61"/><line clip-path="url(#6d607ec1-6b3a-40af-a10e-7179d106b2cd)" fill="none" stroke-dasharray="none" stroke-dashoffset="0" x1="158" x2="144" y1="71" y2="72"/></g></g><g data="{&quot;modelType&quot;:&quot;Dependency&quot;}" hyper="" model-id="connector-o.7ztwWD.AAAARAT" style="pointer-events: auto; cursor: pointer;"><g fill="black" fill-opacity="1" font-family="sans-serif" font-size="11px" image-rendering="optimizeQuality" stroke="black" stroke-dasharray="5" stroke-dashoffset="1" stroke-linecap="butt" stroke-linejoin="round" stroke-opacity="1" text-rendering="geometricPrecision" transform="translate(75,156)"><line clip-path="url(#bffe4ec3-9047-4734-80b9-7ad238ac2f61)" fill="none" x1="50" x2="152" y1="50" y2="50"/><line clip-path="url(#bffe4ec3-9047-4734-80b9-7ad238ac2f61)" fill="none" stroke-dasharray="none" stroke-dashoffset="0" x1="152" x2="140" y1="50" y2="44"/><line clip-path="url(#bffe4ec3-9047-4734-80b9-7ad238ac2f61)" fill="none" stroke-dasharray="none" stroke-dashoffset="0" x1="152" x2="140" y1="50" y2="56"/></g></g><g data="{&quot;modelType&quot;:&quot;Dependency&quot;}" hyper="" model-id="connector-x6TrtwWD.AAAARBN" style="pointer-events: auto; cursor: pointer;"><g fill="black" fill-opacity="1" font-family="sans-serif" font-size="11px" image-rendering="optimizeQuality" stroke="black" stroke-dasharray="5" stroke-dashoffset="1" stroke-linecap="butt" stroke-linejoin="round" stroke-opacity="1" text-rendering="geometricPrecision" transform="translate(373,177)"><line clip-path="url(#610ebdfb-af60-4c2f-a499-b88c00ae1203)" fill="none" x1="50" x2="229" y1="136" y2="136"/><line clip-path="url(#610ebdfb-af60-4c2f-a499-b88c00ae1203)" fill="none" x1="229" x2="229" y1="136" y2="50"/><line clip-path="url(#610ebdfb-af60-4c2f-a499-b88c00ae1203)" fill="none" stroke-dasharray="none" stroke-dashoffset="0" x1="229" x2="223" y1="50" y2="62"/><line clip-path="url(#610ebdfb-af60-4c2f-a499-b88c00ae1203)" fill="none" stroke-dasharray="none" stroke-dashoffset="0" x1="229" x2="235" y1="50" y2="62"/></g></g><g fill="rgb(120,120,120)" fill-opacity="1" font-size="8px" image-rendering="optimizeQuality" stroke="rgb(120,120,120)" stroke-opacity="1" text-rendering="geometricPrecision"><text stroke="none" x="0" xml:space="preserve" y="10">Visual Paradigm Standard(raphaeltremblay(University of Montreal))</text></g></g></svg>